# xmcd
# 
# Track frame offsets:
#     150
#     13562
#     36241
#     52157
#     66064
#     76057
#     95410
#     110624
#     130528
#     156465
#     173003
# 
# Disc length: 2489
# 
# Revision: 2
# Processed by: cddbd v1.5.2PL0 Copyright (c) Steve Scherf et al.
# Submitted via: fre:ac v1.0.27
# 
DISCID=8709b70b
DTITLE=Tim ''Too Slim'' Langford - Broken Halo
DYEAR=2012
DGENRE=Blues
TTITLE0=La Llorona
TTITLE1=Three Chords
TTITLE2=Shaking A Cup
TTITLE3=You Hide It Well
TTITLE4=Princeville Serenade
TTITLE5=40 Watt Bulb
TTITLE6=Broken Halo
TTITLE7=North Dakota Girl
TTITLE8=Dollar Girl
TTITLE9=Long Tail Black Cat
TTITLE10=Gracie
EXTD=
EXTT0=
EXTT1=
EXTT2=
EXTT3=
EXTT4=
EXTT5=
EXTT6=
EXTT7=
EXTT8=
EXTT9=
EXTT10=
PLAYORDER=
